<svg width="452" height="428" viewBox="0 0 452 428" fill="none" xmlns="http://www.w3.org/2000/svg">
<path d="M411.342 185.132V173.568V162.001V150.437H399.776V138.871V127.306V115.74H388.211V104.175V92.609H376.645V81.0443H365.081V69.4781H353.514V57.9135H341.95H330.384V46.3473H318.819H307.253V34.7826H295.688H284.122H272.557V23.2165H260.991H249.426H237.86H226.296H214.73H203.165H191.599V34.7826H180.034H168.468H156.903V46.3473H145.337H133.772V57.9135H122.206H110.641V69.4781H99.0754V81.0443H87.5107V92.609H75.9445V104.175V115.74H64.3798V127.306V138.871V150.437H52.8137V162.001V173.568V185.132H41.249V196.698V208.263V219.829H52.8137V231.394V242.96V254.525V266.091V277.656V289.222H64.3798V300.786H75.9445V312.353V323.917H87.5107V335.483H99.0754V347.048H110.641V358.614H122.206H133.772V370.179H145.337H156.903V381.745H168.468H180.034H191.599V393.31H203.165H214.73H226.296H237.86H249.426H260.991H272.557V381.745H284.122H295.688H307.253V370.179H318.819H330.384V358.614H341.95H353.514V347.048H365.081V335.483H376.645V323.917H388.211V312.353V300.786H399.776V289.222V277.656V266.091H411.342V254.525V242.96V231.394V219.829H422.907V208.263V196.698V185.132H411.342Z" fill="#E7F1F2"/>
<path d="M440.257 72.1945H428.691V83.7591H440.257V72.1945Z" fill="#E7F1F2"/>
<path d="M440.257 49.0636H428.691V60.6283H440.257V49.0636Z" fill="#E7F1F2"/>
<path d="M428.691 72.1945H417.125V83.7591H428.691V72.1945Z" fill="#E7F1F2"/>
<path d="M428.691 49.0637H417.124V60.6284H428.691V49.0637Z" fill="#E7F1F2"/>
<path d="M451.822 72.1945H440.255V83.7591H451.822V72.1945Z" fill="#E7F1F2"/>
<path d="M451.822 49.0636H440.255V60.6283H451.822V49.0636Z" fill="#E7F1F2"/>
<path d="M428.69 72.1944V60.6283H417.124V72.1944H428.69Z" fill="#E7F1F2"/>
<path d="M451.821 72.1944V60.6283H440.255V72.1944H451.821Z" fill="#E7F1F2"/>
<path d="M341.95 416.441H330.384V428.007H341.95V416.441Z" fill="#E7F1F2"/>
<path d="M341.95 393.31H330.384V404.876H341.95V393.31Z" fill="#E7F1F2"/>
<path d="M330.385 416.441H318.819V428.007H330.385V416.441Z" fill="#E7F1F2"/>
<path d="M330.385 393.31H318.819V404.876H330.385V393.31Z" fill="#E7F1F2"/>
<path d="M353.516 416.441H341.95V428.007H353.516V416.441Z" fill="#E7F1F2"/>
<path d="M353.516 393.31H341.95V404.876H353.516V393.31Z" fill="#E7F1F2"/>
<path d="M330.383 416.442V404.876H318.817V416.442H330.383Z" fill="#E7F1F2"/>
<path d="M353.514 416.442V404.876H341.948V416.442H353.514Z" fill="#E7F1F2"/>
<path d="M23.3099 138.871H11.7437V150.437H23.3099V138.871Z" fill="#E7F1F2"/>
<path d="M23.3099 115.74H11.7437V127.306H23.3099V115.74Z" fill="#E7F1F2"/>
<path d="M11.7452 138.871H0.179016V150.437H11.7452V138.871Z" fill="#E7F1F2"/>
<path d="M11.745 115.74H0.178833V127.306H11.745V115.74Z" fill="#E7F1F2"/>
<path d="M34.876 138.871H23.3099V150.437H34.876V138.871Z" fill="#E7F1F2"/>
<path d="M34.876 115.74H23.3099V127.306H34.876V115.74Z" fill="#E7F1F2"/>
<path d="M11.7446 138.872L11.7446 127.306H0.178408L0.178408 138.872H11.7446Z" fill="#E7F1F2"/>
<path d="M34.874 138.872V127.306H23.3078V138.872H34.874Z" fill="#E7F1F2"/>
<path d="M174.25 0.0857239H162.686V11.6519H174.25V0.0857239Z" fill="#DD840E"/>
<path d="M208.947 0.0857239H197.381V11.6519H208.947V0.0857239Z" fill="#FED742"/>
<path d="M232.078 0.0857239H220.512V11.6519H232.078V0.0857239Z" fill="#F79D19"/>
<path d="M243.644 0.0857239H232.078V11.6519H243.644V0.0857239Z" fill="#FDC507"/>
<path d="M266.775 0.0857239H255.209V11.6519H266.775V0.0857239Z" fill="#FED742"/>
<path d="M301.472 0.0857239H289.906V11.6519H301.472V0.0857239Z" fill="#DD840E"/>
<path d="M151.119 11.6519H139.555V23.218H151.119V11.6519Z" fill="#FDC507"/>
<path d="M162.686 11.6519H151.119V23.218H162.686V11.6519Z" fill="#FDC507"/>
<path d="M174.25 11.6519H162.686V23.218H174.25V11.6519Z" fill="#F79D19"/>
<path d="M185.816 11.6519H174.25V23.218H185.816V11.6519Z" fill="#F79D19"/>
<path d="M197.381 11.6519H185.816V23.218H197.381V11.6519Z" fill="#FED742"/>
<path d="M208.947 11.6519H197.381V23.218H208.947V11.6519Z" fill="#FED742"/>
<path d="M220.512 11.6519H208.947V23.218H220.512V11.6519Z" fill="#FED742"/>
<path d="M232.078 11.6519H220.512V23.218H232.078V11.6519Z" fill="#FDC507"/>
<path d="M243.644 11.6519H232.078V23.218H243.644V11.6519Z" fill="#F79D19"/>
<path d="M255.21 11.6519H243.644V23.218H255.21V11.6519Z" fill="#FED742"/>
<path d="M266.775 11.6519H255.209V23.218H266.775V11.6519Z" fill="#FED742"/>
<path d="M278.341 11.6519H266.775V23.218H278.341V11.6519Z" fill="#FED742"/>
<path d="M289.906 11.6519H278.34V23.218H289.906V11.6519Z" fill="#F79D19"/>
<path d="M301.472 11.6519H289.906V23.218H301.472V11.6519Z" fill="#F79D19"/>
<path d="M313.037 11.6519H301.471V23.218H313.037V11.6519Z" fill="#FDC507"/>
<path d="M324.603 11.6519H313.037V23.218H324.603V11.6519Z" fill="#FDC507"/>
<path d="M151.119 23.2166H139.555V34.7827H151.119V23.2166Z" fill="#FDC507"/>
<path d="M162.686 23.2166H151.119V34.7827H162.686V23.2166Z" fill="#FDC507"/>
<path d="M174.25 23.2166H162.686V34.7827H174.25V23.2166Z" fill="#FDC507"/>
<path d="M185.816 23.2166H174.25V34.7827H185.816V23.2166Z" fill="#F79D19"/>
<path d="M197.381 23.2166H185.816V34.7827H197.381V23.2166Z" fill="#DD840E"/>
<path d="M208.947 23.2166H197.381V34.7827H208.947V23.2166Z" fill="#FED742"/>
<path d="M220.512 23.2166H208.947V34.7827H220.512V23.2166Z" fill="#FED742"/>
<path d="M232.078 23.2166H220.512V34.7827H232.078V23.2166Z" fill="#F79D19"/>
<path d="M243.644 23.2166H232.078V34.7827H243.644V23.2166Z" fill="#FDC507"/>
<path d="M255.21 23.2166H243.644V34.7827H255.21V23.2166Z" fill="#FED742"/>
<path d="M266.775 23.2166H255.209V34.7827H266.775V23.2166Z" fill="#FED742"/>
<path d="M278.341 23.2166H266.775V34.7827H278.341V23.2166Z" fill="#DD840E"/>
<path d="M289.906 23.2166H278.34V34.7827H289.906V23.2166Z" fill="#F79D19"/>
<path d="M301.472 23.2166H289.906V34.7827H301.472V23.2166Z" fill="#FDC507"/>
<path d="M313.037 23.2166H301.471V34.7827H313.037V23.2166Z" fill="#FDC507"/>
<path d="M324.603 23.2166H313.037V34.7827H324.603V23.2166Z" fill="#FDC507"/>
<path d="M139.555 34.7827H127.99V46.3489H139.555V34.7827Z" fill="#DD840E"/>
<path d="M151.119 34.7827H139.555V46.3489H151.119V34.7827Z" fill="#F79D19"/>
<path d="M162.686 34.7827H151.119V46.3489H162.686V34.7827Z" fill="#FDC507"/>
<path d="M174.25 34.7827H162.686V46.3489H174.25V34.7827Z" fill="#FDC507"/>
<path d="M185.816 34.7827H174.25V46.3489H185.816V34.7827Z" fill="#FDC507"/>
<path d="M197.381 34.7827H185.816V46.3489H197.381V34.7827Z" fill="#F79D19"/>
<path d="M208.947 34.7827H197.381V46.3489H208.947V34.7827Z" fill="#F79D19"/>
<path d="M220.512 34.7827H208.947V46.3489H220.512V34.7827Z" fill="#FED742"/>
<path d="M232.078 34.7827H220.512V46.3489H232.078V34.7827Z" fill="#FDC507"/>
<path d="M243.644 34.7827H232.078V46.3489H243.644V34.7827Z" fill="#F79D19"/>
<path d="M255.21 34.7827H243.644V46.3489H255.21V34.7827Z" fill="#FED742"/>
<path d="M266.775 34.7827H255.209V46.3489H266.775V34.7827Z" fill="#F79D19"/>
<path d="M278.341 34.7827H266.775V46.3489H278.341V34.7827Z" fill="#F79D19"/>
<path d="M289.906 34.7827H278.34V46.3489H289.906V34.7827Z" fill="#FDC507"/>
<path d="M301.472 34.7827H289.906V46.3489H301.472V34.7827Z" fill="#FDC507"/>
<path d="M313.037 34.7827H301.471V46.3489H313.037V34.7827Z" fill="#FDC507"/>
<path d="M324.603 34.7827H313.037V46.3489H324.603V34.7827Z" fill="#F79D19"/>
<path d="M336.167 34.7827H324.601V46.3489H336.167V34.7827Z" fill="#DD840E"/>
<path d="M151.119 46.3474H139.555V57.9135H151.119V46.3474Z" fill="#F79D19"/>
<path d="M162.686 46.3474H151.119V57.9135H162.686V46.3474Z" fill="#F79D19"/>
<path d="M174.25 46.3474H162.686V57.9135H174.25V46.3474Z" fill="#FDC507"/>
<path d="M185.816 46.3474H174.25V57.9135H185.816V46.3474Z" fill="#FDC507"/>
<path d="M197.381 46.3474H185.816V57.9135H197.381V46.3474Z" fill="#FDC507"/>
<path d="M208.947 46.3474H197.381V57.9135H208.947V46.3474Z" fill="#F79D19"/>
<path d="M220.512 46.3474H208.947V57.9135H220.512V46.3474Z" fill="#DD840E"/>
<path d="M232.078 46.3474H220.512V57.9135H232.078V46.3474Z" fill="#FDC507"/>
<path d="M243.644 46.3474H232.078V57.9135H243.644V46.3474Z" fill="#FDC507"/>
<path d="M255.21 46.3474H243.644V57.9135H255.21V46.3474Z" fill="#DD840E"/>
<path d="M266.775 46.3474H255.209V57.9135H266.775V46.3474Z" fill="#F79D19"/>
<path d="M278.341 46.3474H266.775V57.9135H278.341V46.3474Z" fill="#FDC507"/>
<path d="M289.906 46.3474H278.34V57.9135H289.906V46.3474Z" fill="#FDC507"/>
<path d="M301.472 46.3474H289.906V57.9135H301.472V46.3474Z" fill="#FDC507"/>
<path d="M313.037 46.3474H301.471V57.9135H313.037V46.3474Z" fill="#F79D19"/>
<path d="M324.603 46.3474H313.037V57.9135H324.603V46.3474Z" fill="#F79D19"/>
<path d="M151.119 57.9135H139.555V69.4797H151.119V57.9135Z" fill="#FED742"/>
<path d="M162.686 57.9135H151.119V69.4797H162.686V57.9135Z" fill="#DD840E"/>
<path d="M174.25 57.9135H162.686V69.4797H174.25V57.9135Z" fill="#F79D19"/>
<path d="M185.816 57.9135H174.25V69.4797H185.816V57.9135Z" fill="#FDC507"/>
<path d="M197.381 57.9135H185.816V69.4797H197.381V57.9135Z" fill="#FDC507"/>
<path d="M208.947 57.9135H197.381V69.4797H208.947V57.9135Z" fill="#FDC507"/>
<path d="M220.512 57.9135H208.947V69.4797H220.512V57.9135Z" fill="#7A3E15"/>
<path d="M232.078 57.9135H220.512V69.4797H232.078V57.9135Z" fill="#68310C"/>
<path d="M243.644 57.9135H232.078V69.4797H243.644V57.9135Z" fill="#68310C"/>
<path d="M255.21 57.9135H243.644V69.4797H255.21V57.9135Z" fill="#7A3E15"/>
<path d="M266.775 57.9135H255.209V69.4797H266.775V57.9135Z" fill="#FDC507"/>
<path d="M278.341 57.9135H266.775V69.4797H278.341V57.9135Z" fill="#FDC507"/>
<path d="M289.906 57.9135H278.34V69.4797H289.906V57.9135Z" fill="#FDC507"/>
<path d="M301.472 57.9135H289.906V69.4797H301.472V57.9135Z" fill="#DD840E"/>
<path d="M313.037 57.9135H301.471V69.4797H313.037V57.9135Z" fill="#F79D19"/>
<path d="M324.603 57.9135H313.037V69.4797H324.603V57.9135Z" fill="#FED742"/>
<path d="M127.99 69.4782H116.424V81.0444H127.99V69.4782Z" fill="#FED742"/>
<path d="M139.555 69.4782H127.99V81.0444H139.555V69.4782Z" fill="#FED742"/>
<path d="M151.119 69.4782H139.555V81.0444H151.119V69.4782Z" fill="#FED742"/>
<path d="M162.686 69.4782H151.119V81.0444H162.686V69.4782Z" fill="#FED742"/>
<path d="M174.25 69.4782H162.686V81.0444H174.25V69.4782Z" fill="#F79D19"/>
<path d="M185.816 69.4782H174.25V81.0444H185.816V69.4782Z" fill="#F79D19"/>
<path d="M197.381 69.4782H185.816V81.0444H197.381V69.4782Z" fill="#FDC507"/>
<path d="M208.947 69.4782H197.381V81.0444H208.947V69.4782Z" fill="#532404"/>
<path d="M220.512 69.4782H208.947V81.0444H220.512V69.4782Z" fill="#68310C"/>
<path d="M232.078 69.4782H220.512V81.0444H232.078V69.4782Z" fill="#68310C"/>
<path d="M243.644 69.4782H232.078V81.0444H243.644V69.4782Z" fill="#68310C"/>
<path d="M255.21 69.4782H243.644V81.0444H255.21V69.4782Z" fill="#68310C"/>
<path d="M266.775 69.4782H255.209V81.0444H266.775V69.4782Z" fill="#532404"/>
<path d="M278.341 69.4782H266.775V81.0444H278.341V69.4782Z" fill="#FDC507"/>
<path d="M289.906 69.4782H278.34V81.0444H289.906V69.4782Z" fill="#F79D19"/>
<path d="M301.472 69.4782H289.906V81.0444H301.472V69.4782Z" fill="#F79D19"/>
<path d="M313.037 69.4782H301.471V81.0444H313.037V69.4782Z" fill="#FED742"/>
<path d="M324.603 69.4782H313.037V81.0444H324.603V69.4782Z" fill="#FED742"/>
<path d="M336.167 69.4782H324.601V81.0444H336.167V69.4782Z" fill="#FED742"/>
<path d="M347.734 69.4782H336.167V81.0444H347.734V69.4782Z" fill="#FED742"/>
<path d="M151.119 81.0443H139.555V92.6105H151.119V81.0443Z" fill="#FED742"/>
<path d="M162.686 81.0443H151.119V92.6105H162.686V81.0443Z" fill="#FED742"/>
<path d="M174.25 81.0443H162.686V92.6105H174.25V81.0443Z" fill="#FED742"/>
<path d="M185.816 81.0443H174.25V92.6105H185.816V81.0443Z" fill="#DD840E"/>
<path d="M197.381 81.0443H185.816V92.6105H197.381V81.0443Z" fill="#7A3E15"/>
<path d="M208.947 81.0443H197.381V92.6105H208.947V81.0443Z" fill="#68310C"/>
<path d="M220.512 81.0443H208.947V92.6105H220.512V81.0443Z" fill="#844419"/>
<path d="M232.078 81.0443H220.512V92.6105H232.078V81.0443Z" fill="#532404"/>
<path d="M243.644 81.0443H232.078V92.6105H243.644V81.0443Z" fill="#532404"/>
<path d="M255.21 81.0443H243.644V92.6105H255.21V81.0443Z" fill="#844419"/>
<path d="M266.775 81.0443H255.209V92.6105H266.775V81.0443Z" fill="#68310C"/>
<path d="M278.341 81.0443H266.775V92.6105H278.341V81.0443Z" fill="#7A3E15"/>
<path d="M289.906 81.0443H278.34V92.6105H289.906V81.0443Z" fill="#DD840E"/>
<path d="M301.472 81.0443H289.906V92.6105H301.472V81.0443Z" fill="#FED742"/>
<path d="M313.037 81.0443H301.471V92.6105H313.037V81.0443Z" fill="#FED742"/>
<path d="M324.603 81.0443H313.037V92.6105H324.603V81.0443Z" fill="#FED742"/>
<path d="M127.99 92.609H116.424V104.175H127.99V92.609Z" fill="#F79D19"/>
<path d="M139.555 92.609H127.99V104.175H139.555V92.609Z" fill="#FDC507"/>
<path d="M151.119 92.609H139.555V104.175H151.119V92.609Z" fill="#F79D19"/>
<path d="M162.686 92.609H151.119V104.175H162.686V92.609Z" fill="#FDC507"/>
<path d="M174.25 92.609H162.686V104.175H174.25V92.609Z" fill="#F79D19"/>
<path d="M185.816 92.609H174.25V104.175H185.816V92.609Z" fill="#FDC507"/>
<path d="M197.381 92.609H185.816V104.175H197.381V92.609Z" fill="#68310C"/>
<path d="M208.947 92.609H197.381V104.175H208.947V92.609Z" fill="#68310C"/>
<path d="M220.512 92.609H208.947V104.175H220.512V92.609Z" fill="#532404"/>
<path d="M232.078 92.609H220.512V104.175H232.078V92.609Z" fill="#44230E"/>
<path d="M243.644 92.609H232.078V104.175H243.644V92.609Z" fill="#532404"/>
<path d="M255.21 92.609H243.644V104.175H255.21V92.609Z" fill="#532404"/>
<path d="M266.775 92.609H255.209V104.175H266.775V92.609Z" fill="#68310C"/>
<path d="M278.341 92.609H266.775V104.175H278.341V92.609Z" fill="#68310C"/>
<path d="M289.906 92.609H278.34V104.175H289.906V92.609Z" fill="#FDC507"/>
<path d="M301.472 92.609H289.906V104.175H301.472V92.609Z" fill="#FDC507"/>
<path d="M313.037 92.609H301.471V104.175H313.037V92.609Z" fill="#F79D19"/>
<path d="M324.603 92.609H313.037V104.175H324.603V92.609Z" fill="#FDC507"/>
<path d="M336.167 92.609H324.601V104.175H336.167V92.609Z" fill="#F79D19"/>
<path d="M347.734 92.609H336.167V104.175H347.734V92.609Z" fill="#FDC507"/>
<path d="M127.99 104.175H116.424V115.741H127.99V104.175Z" fill="#FDC507"/>
<path d="M139.555 104.175H127.99V115.741H139.555V104.175Z" fill="#F79D19"/>
<path d="M151.119 104.175H139.555V115.741H151.119V104.175Z" fill="#FDC507"/>
<path d="M162.686 104.175H151.119V115.741H162.686V104.175Z" fill="#F79D19"/>
<path d="M174.25 104.175H162.686V115.741H174.25V104.175Z" fill="#FDC507"/>
<path d="M185.816 104.175H174.25V115.741H185.816V104.175Z" fill="#FDC507"/>
<path d="M197.381 104.175H185.816V115.741H197.381V104.175Z" fill="#532404"/>
<path d="M208.947 104.175H197.381V115.741H208.947V104.175Z" fill="#68310C"/>
<path d="M220.512 104.175H208.947V115.741H220.512V104.175Z" fill="#532404"/>
<path d="M232.078 104.175H220.512V115.741H232.078V104.175Z" fill="#532404"/>
<path d="M243.644 104.175H232.078V115.741H243.644V104.175Z" fill="#44230E"/>
<path d="M255.21 104.175H243.644V115.741H255.21V104.175Z" fill="#532404"/>
<path d="M266.775 104.175H255.209V115.741H266.775V104.175Z" fill="#68310C"/>
<path d="M278.341 104.175H266.775V115.741H278.341V104.175Z" fill="#532404"/>
<path d="M289.906 104.175H278.34V115.741H289.906V104.175Z" fill="#FDC507"/>
<path d="M301.472 104.175H289.906V115.741H301.472V104.175Z" fill="#F79D19"/>
<path d="M313.037 104.175H301.471V115.741H313.037V104.175Z" fill="#FDC507"/>
<path d="M324.603 104.175H313.037V115.741H324.603V104.175Z" fill="#F79D19"/>
<path d="M336.167 104.175H324.601V115.741H336.167V104.175Z" fill="#FDC507"/>
<path d="M347.734 104.175H336.167V115.741H347.734V104.175Z" fill="#F79D19"/>
<path d="M151.119 115.74H139.555V127.306H151.119V115.74Z" fill="#FED742"/>
<path d="M162.686 115.74H151.119V127.306H162.686V115.74Z" fill="#FED742"/>
<path d="M174.25 115.74H162.686V127.306H174.25V115.74Z" fill="#FED742"/>
<path d="M185.816 115.74H174.25V127.306H185.816V115.74Z" fill="#DD840E"/>
<path d="M197.381 115.74H185.816V127.306H197.381V115.74Z" fill="#7A3E15"/>
<path d="M208.947 115.74H197.381V127.306H208.947V115.74Z" fill="#68310C"/>
<path d="M220.512 115.74H208.947V127.306H220.512V115.74Z" fill="#844419"/>
<path d="M232.078 115.74H220.512V127.306H232.078V115.74Z" fill="#532404"/>
<path d="M243.644 115.74H232.078V127.306H243.644V115.74Z" fill="#532404"/>
<path d="M255.21 115.74H243.644V127.306H255.21V115.74Z" fill="#844419"/>
<path d="M266.775 115.74H255.209V127.306H266.775V115.74Z" fill="#68310C"/>
<path d="M278.341 115.74H266.775V127.306H278.341V115.74Z" fill="#7A3E15"/>
<path d="M289.906 115.74H278.34V127.306H289.906V115.74Z" fill="#DD840E"/>
<path d="M301.472 115.74H289.906V127.306H301.472V115.74Z" fill="#FED742"/>
<path d="M313.037 115.74H301.471V127.306H313.037V115.74Z" fill="#FED742"/>
<path d="M324.603 115.74H313.037V127.306H324.603V115.74Z" fill="#FED742"/>
<path d="M127.99 127.306H116.424V138.872H127.99V127.306Z" fill="#FED742"/>
<path d="M139.555 127.306H127.99V138.872H139.555V127.306Z" fill="#FED742"/>
<path d="M151.119 127.306H139.555V138.872H151.119V127.306Z" fill="#FED742"/>
<path d="M162.686 127.306H151.119V138.872H162.686V127.306Z" fill="#FED742"/>
<path d="M174.25 127.306H162.686V138.872H174.25V127.306Z" fill="#F79D19"/>
<path d="M185.816 127.306H174.25V138.872H185.816V127.306Z" fill="#F79D19"/>
<path d="M197.381 127.306H185.816V138.872H197.381V127.306Z" fill="#FDC507"/>
<path d="M208.947 127.306H197.381V138.872H208.947V127.306Z" fill="#532404"/>
<path d="M220.512 127.306H208.947V138.872H220.512V127.306Z" fill="#68310C"/>
<path d="M232.078 127.306H220.512V138.872H232.078V127.306Z" fill="#68310C"/>
<path d="M243.644 127.306H232.078V138.872H243.644V127.306Z" fill="#68310C"/>
<path d="M255.21 127.306H243.644V138.872H255.21V127.306Z" fill="#68310C"/>
<path d="M266.775 127.306H255.209V138.872H266.775V127.306Z" fill="#532404"/>
<path d="M278.341 127.306H266.775V138.872H278.341V127.306Z" fill="#FDC507"/>
<path d="M289.906 127.306H278.34V138.872H289.906V127.306Z" fill="#F79D19"/>
<path d="M301.472 127.306H289.906V138.872H301.472V127.306Z" fill="#F79D19"/>
<path d="M313.037 127.306H301.471V138.872H313.037V127.306Z" fill="#FED742"/>
<path d="M324.603 127.306H313.037V138.872H324.603V127.306Z" fill="#FED742"/>
<path d="M336.167 127.306H324.601V138.872H336.167V127.306Z" fill="#FED742"/>
<path d="M347.734 127.306H336.167V138.872H347.734V127.306Z" fill="#FED742"/>
<path d="M151.119 138.871H139.555V150.437H151.119V138.871Z" fill="#FED742"/>
<path d="M162.686 138.871H151.119V150.437H162.686V138.871Z" fill="#DD840E"/>
<path d="M174.25 138.871H162.686V150.437H174.25V138.871Z" fill="#F79D19"/>
<path d="M185.816 138.871H174.25V150.437H185.816V138.871Z" fill="#FDC507"/>
<path d="M197.381 138.871H185.816V150.437H197.381V138.871Z" fill="#FDC507"/>
<path d="M208.947 138.871H197.381V150.437H208.947V138.871Z" fill="#FDC507"/>
<path d="M220.512 138.871H208.947V150.437H220.512V138.871Z" fill="#7A3E15"/>
<path d="M232.078 138.871H220.512V150.437H232.078V138.871Z" fill="#68310C"/>
<path d="M243.644 138.871H232.078V150.437H243.644V138.871Z" fill="#68310C"/>
<path d="M255.21 138.871H243.644V150.437H255.21V138.871Z" fill="#7A3E15"/>
<path d="M266.775 138.871H255.209V150.437H266.775V138.871Z" fill="#FDC507"/>
<path d="M278.341 138.871H266.775V150.437H278.341V138.871Z" fill="#FDC507"/>
<path d="M289.906 138.871H278.34V150.437H289.906V138.871Z" fill="#FDC507"/>
<path d="M301.472 138.871H289.906V150.437H301.472V138.871Z" fill="#F79D19"/>
<path d="M313.037 138.871H301.471V150.437H313.037V138.871Z" fill="#DD840E"/>
<path d="M324.603 138.871H313.037V150.437H324.603V138.871Z" fill="#FED742"/>
<path d="M151.119 150.437H139.555V162.003H151.119V150.437Z" fill="#F79D19"/>
<path d="M162.686 150.437H151.119V162.003H162.686V150.437Z" fill="#F79D19"/>
<path d="M174.25 150.437H162.686V162.003H174.25V150.437Z" fill="#FDC507"/>
<path d="M185.816 150.437H174.25V162.003H185.816V150.437Z" fill="#FDC507"/>
<path d="M197.381 150.437H185.816V162.003H197.381V150.437Z" fill="#FDC507"/>
<path d="M208.947 150.437H197.381V162.003H208.947V150.437Z" fill="#F79D19"/>
<path d="M220.512 150.437H208.947V162.003H220.512V150.437Z" fill="#DD840E"/>
<path d="M232.078 150.437H220.512V162.003H232.078V150.437Z" fill="#FDC507"/>
<path d="M243.644 150.437H232.078V162.003H243.644V150.437Z" fill="#FDC507"/>
<path d="M255.21 150.437H243.644V162.003H255.21V150.437Z" fill="#DD840E"/>
<path d="M266.775 150.437H255.209V162.003H266.775V150.437Z" fill="#F79D19"/>
<path d="M278.341 150.437H266.775V162.003H278.341V150.437Z" fill="#FDC507"/>
<path d="M289.906 150.437H278.34V162.003H289.906V150.437Z" fill="#FDC507"/>
<path d="M301.472 150.437H289.906V162.003H301.472V150.437Z" fill="#FDC507"/>
<path d="M313.037 150.437H301.471V162.003H313.037V150.437Z" fill="#F79D19"/>
<path d="M324.603 150.437H313.037V162.003H324.603V150.437Z" fill="#F79D19"/>
<path d="M139.555 162.002H127.99V173.568H139.555V162.002Z" fill="#DD840E"/>
<path d="M151.119 162.002H139.555V173.568H151.119V162.002Z" fill="#F79D19"/>
<path d="M162.686 162.002H151.119V173.568H162.686V162.002Z" fill="#FDC507"/>
<path d="M174.25 162.002H162.686V173.568H174.25V162.002Z" fill="#FDC507"/>
<path d="M185.816 162.002H174.25V173.568H185.816V162.002Z" fill="#FDC507"/>
<path d="M197.381 162.002H185.816V173.568H197.381V162.002Z" fill="#F79D19"/>
<path d="M208.947 162.002H197.381V173.568H208.947V162.002Z" fill="#F79D19"/>
<path d="M220.512 162.002H208.947V173.568H220.512V162.002Z" fill="#FED742"/>
<path d="M232.078 162.002H220.512V173.568H232.078V162.002Z" fill="#F79D19"/>
<path d="M243.644 162.002H232.078V173.568H243.644V162.002Z" fill="#FDC507"/>
<path d="M255.21 162.002H243.644V173.568H255.21V162.002Z" fill="#FED742"/>
<path d="M266.775 162.002H255.209V173.568H266.775V162.002Z" fill="#F79D19"/>
<path d="M278.341 162.002H266.775V173.568H278.341V162.002Z" fill="#F79D19"/>
<path d="M289.906 162.002H278.34V173.568H289.906V162.002Z" fill="#FDC507"/>
<path d="M301.472 162.002H289.906V173.568H301.472V162.002Z" fill="#FDC507"/>
<path d="M313.037 162.002H301.471V173.568H313.037V162.002Z" fill="#FDC507"/>
<path d="M324.603 162.002H313.037V173.568H324.603V162.002Z" fill="#F79D19"/>
<path d="M336.167 162.002H324.601V173.568H336.167V162.002Z" fill="#DD840E"/>
<path d="M151.119 173.568H139.555V185.134H151.119V173.568Z" fill="#FDC507"/>
<path d="M162.686 173.568H151.119V185.134H162.686V173.568Z" fill="#FDC507"/>
<path d="M174.25 173.568H162.686V185.134H174.25V173.568Z" fill="#FDC507"/>
<path d="M185.816 173.568H174.25V185.134H185.816V173.568Z" fill="#F79D19"/>
<path d="M197.381 173.568H185.816V185.134H197.381V173.568Z" fill="#DD840E"/>
<path d="M208.947 173.568H197.381V185.134H208.947V173.568Z" fill="#FED742"/>
<path d="M220.512 173.568H208.947V185.134H220.512V173.568Z" fill="#FED742"/>
<path d="M232.078 173.568H220.512V185.134H232.078V173.568Z" fill="#FDC507"/>
<path d="M243.644 173.568H232.078V185.134H243.644V173.568Z" fill="#F79D19"/>
<path d="M255.21 173.568H243.644V185.134H255.21V173.568Z" fill="#FED742"/>
<path d="M266.775 173.568H255.209V185.134H266.775V173.568Z" fill="#FED742"/>
<path d="M278.341 173.568H266.775V185.134H278.341V173.568Z" fill="#DD840E"/>
<path d="M289.906 173.568H278.34V185.134H289.906V173.568Z" fill="#F79D19"/>
<path d="M301.472 173.568H289.906V185.134H301.472V173.568Z" fill="#FDC507"/>
<path d="M313.037 173.568H301.471V185.134H313.037V173.568Z" fill="#FDC507"/>
<path d="M324.603 173.568H313.037V185.134H324.603V173.568Z" fill="#FDC507"/>
<path d="M151.119 185.132H139.555V196.699H151.119V185.132Z" fill="#FDC507"/>
<path d="M162.686 185.132H151.119V196.699H162.686V185.132Z" fill="#FDC507"/>
<path d="M174.25 185.132H162.686V196.699H174.25V185.132Z" fill="#F79D19"/>
<path d="M185.816 185.132H174.25V196.699H185.816V185.132Z" fill="#F79D19"/>
<path d="M197.381 185.132H185.816V196.699H197.381V185.132Z" fill="#FED742"/>
<path d="M208.947 185.132H197.381V196.699H208.947V185.132Z" fill="#FED742"/>
<path d="M220.512 185.132H208.947V196.699H220.512V185.132Z" fill="#FED742"/>
<path d="M232.078 185.132H220.512V196.699H232.078V185.132Z" fill="#F79D19"/>
<path d="M243.644 185.132H232.078V196.699H243.644V185.132Z" fill="#FDC507"/>
<path d="M255.21 185.132H243.644V196.699H255.21V185.132Z" fill="#FED742"/>
<path d="M266.775 185.132H255.209V196.699H266.775V185.132Z" fill="#FED742"/>
<path d="M278.341 185.132H266.775V196.699H278.341V185.132Z" fill="#FED742"/>
<path d="M289.906 185.132H278.34V196.699H289.906V185.132Z" fill="#F79D19"/>
<path d="M301.472 185.132H289.906V196.699H301.472V185.132Z" fill="#F79D19"/>
<path d="M313.037 185.132H301.471V196.699H313.037V185.132Z" fill="#FDC507"/>
<path d="M324.603 185.132H313.037V196.699H324.603V185.132Z" fill="#FDC507"/>
<path d="M174.25 196.698H162.686V208.265H174.25V196.698Z" fill="#DD840E"/>
<path d="M208.947 196.698H197.381V208.265H208.947V196.698Z" fill="#FED742"/>
<path d="M220.512 196.698H208.947V208.265H220.512V196.698Z" fill="#777C2E"/>
<path d="M232.078 196.698H220.512V208.265H232.078V196.698Z" fill="#FDC507"/>
<path d="M243.644 196.698H232.078V208.265H243.644V196.698Z" fill="#F79D19"/>
<path d="M266.775 196.698H255.209V208.265H266.775V196.698Z" fill="#FED742"/>
<path d="M301.472 196.698H289.906V208.265H301.472V196.698Z" fill="#DD840E"/>
<path d="M127.99 208.263H116.424V219.829H127.99V208.263Z" fill="#AAB242"/>
<path d="M139.555 208.263H127.99V219.829H139.555V208.263Z" fill="#AAB242"/>
<path d="M151.119 208.263H139.555V219.829H151.119V208.263Z" fill="#AAB242"/>
<path d="M220.512 208.263H208.947V219.829H220.512V208.263Z" fill="#777C2E"/>
<path d="M232.078 208.263H220.512V219.829H232.078V208.263Z" fill="#777C2E"/>
<path d="M243.644 208.263H232.078V219.829H243.644V208.263Z" fill="#777C2E"/>
<path d="M127.99 219.829H116.424V231.394H127.99V219.829Z" fill="#919E35"/>
<path d="M139.555 219.829H127.99V231.394H139.555V219.829Z" fill="#919E35"/>
<path d="M151.119 219.829H139.555V231.394H151.119V219.829Z" fill="#AAB242"/>
<path d="M162.686 219.829H151.119V231.394H162.686V219.829Z" fill="#AAB242"/>
<path d="M232.078 219.829H220.512V231.394H232.078V219.829Z" fill="#919E35"/>
<path d="M127.99 231.394H116.424V242.96H127.99V231.394Z" fill="#777C2E"/>
<path d="M139.555 231.394H127.99V242.96H139.555V231.394Z" fill="#919E35"/>
<path d="M151.119 231.394H139.555V242.96H151.119V231.394Z" fill="#919E35"/>
<path d="M162.686 231.394H151.119V242.96H162.686V231.394Z" fill="#AAB242"/>
<path d="M174.25 231.394H162.686V242.96H174.25V231.394Z" fill="#AAB242"/>
<path d="M185.816 231.394H174.25V242.96H185.816V231.394Z" fill="#AAB242"/>
<path d="M232.078 231.394H220.512V242.96H232.078V231.394Z" fill="#919E35"/>
<path d="M313.037 231.394H301.471V242.96H313.037V231.394Z" fill="#AAB242"/>
<path d="M324.603 231.394H313.037V242.96H324.603V231.394Z" fill="#AAB242"/>
<path d="M336.167 231.394H324.601V242.96H336.167V231.394Z" fill="#AAB242"/>
<path d="M139.555 242.96H127.99V254.526H139.555V242.96Z" fill="#777C2E"/>
<path d="M151.119 242.96H139.555V254.526H151.119V242.96Z" fill="#919E35"/>
<path d="M162.686 242.96H151.119V254.526H162.686V242.96Z" fill="#919E35"/>
<path d="M174.25 242.96H162.686V254.526H174.25V242.96Z" fill="#919E35"/>
<path d="M185.816 242.96H174.25V254.526H185.816V242.96Z" fill="#AAB242"/>
<path d="M197.381 242.96H185.816V254.526H197.381V242.96Z" fill="#AAB242"/>
<path d="M232.078 242.96H220.512V254.526H232.078V242.96Z" fill="#919E35"/>
<path d="M289.906 242.96H278.34V254.526H289.906V242.96Z" fill="#AAB242"/>
<path d="M301.472 242.96H289.906V254.526H301.472V242.96Z" fill="#AAB242"/>
<path d="M313.037 242.96H301.471V254.526H313.037V242.96Z" fill="#AAB242"/>
<path d="M324.603 242.96H313.037V254.526H324.603V242.96Z" fill="#919E35"/>
<path d="M336.167 242.96H324.601V254.526H336.167V242.96Z" fill="#777C2E"/>
<path d="M139.555 254.525H127.99V266.091H139.555V254.525Z" fill="#777C2E"/>
<path d="M151.119 254.525H139.555V266.091H151.119V254.525Z" fill="#777C2E"/>
<path d="M162.686 254.525H151.119V266.091H162.686V254.525Z" fill="#919E35"/>
<path d="M174.25 254.525H162.686V266.091H174.25V254.525Z" fill="#919E35"/>
<path d="M185.816 254.525H174.25V266.091H185.816V254.525Z" fill="#919E35"/>
<path d="M197.381 254.525H185.816V266.091H197.381V254.525Z" fill="#AAB242"/>
<path d="M220.512 254.525H208.947V266.091H220.512V254.525Z" fill="#919E35"/>
<path d="M232.078 254.525H220.512V266.091H232.078V254.525Z" fill="#919E35"/>
<path d="M278.341 254.525H266.775V266.091H278.341V254.525Z" fill="#AAB242"/>
<path d="M289.906 254.525H278.34V266.091H289.906V254.525Z" fill="#AAB242"/>
<path d="M301.472 254.525H289.906V266.091H301.472V254.525Z" fill="#919E35"/>
<path d="M313.037 254.525H301.471V266.091H313.037V254.525Z" fill="#919E35"/>
<path d="M324.603 254.525H313.037V266.091H324.603V254.525Z" fill="#777C2E"/>
<path d="M336.167 254.525H324.601V266.091H336.167V254.525Z" fill="#777C2E"/>
<path d="M151.119 266.091H139.555V277.657H151.119V266.091Z" fill="#777C2E"/>
<path d="M162.686 266.091H151.119V277.657H162.686V266.091Z" fill="#777C2E"/>
<path d="M174.25 266.091H162.686V277.657H174.25V266.091Z" fill="#777C2E"/>
<path d="M185.816 266.091H174.25V277.657H185.816V266.091Z" fill="#919E35"/>
<path d="M197.381 266.091H185.816V277.657H197.381V266.091Z" fill="#919E35"/>
<path d="M220.512 266.091H208.947V277.657H220.512V266.091Z" fill="#919E35"/>
<path d="M266.775 266.091H255.209V277.657H266.775V266.091Z" fill="#AAB242"/>
<path d="M278.341 266.091H266.775V277.657H278.341V266.091Z" fill="#AAB242"/>
<path d="M289.906 266.091H278.34V277.657H289.906V266.091Z" fill="#919E35"/>
<path d="M301.472 266.091H289.906V277.657H301.472V266.091Z" fill="#919E35"/>
<path d="M313.037 266.091H301.471V277.657H313.037V266.091Z" fill="#777C2E"/>
<path d="M324.603 266.091H313.037V277.657H324.603V266.091Z" fill="#777C2E"/>
<path d="M162.686 277.656H151.119V289.222H162.686V277.656Z" fill="#777C2E"/>
<path d="M174.25 277.656H162.686V289.222H174.25V277.656Z" fill="#777C2E"/>
<path d="M185.816 277.656H174.25V289.222H185.816V277.656Z" fill="#777C2E"/>
<path d="M197.381 277.656H185.816V289.222H197.381V277.656Z" fill="#919E35"/>
<path d="M220.512 277.656H208.947V289.222H220.512V277.656Z" fill="#919E35"/>
<path d="M266.775 277.656H255.209V289.222H266.775V277.656Z" fill="#AAB242"/>
<path d="M278.341 277.656H266.775V289.222H278.341V277.656Z" fill="#919E35"/>
<path d="M289.906 277.656H278.34V289.222H289.906V277.656Z" fill="#919E35"/>
<path d="M301.472 277.656H289.906V289.222H301.472V277.656Z" fill="#777C2E"/>
<path d="M313.037 277.656H301.471V289.222H313.037V277.656Z" fill="#777C2E"/>
<path d="M324.603 277.656H313.037V289.222H324.603V277.656Z" fill="#777C2E"/>
<path d="M197.381 289.222H185.816V300.788H197.381V289.222Z" fill="#919E35"/>
<path d="M208.947 289.222H197.381V300.788H208.947V289.222Z" fill="#919E35"/>
<path d="M220.512 289.222H208.947V300.788H220.512V289.222Z" fill="#919E35"/>
<path d="M266.775 289.222H255.209V300.788H266.775V289.222Z" fill="#919E35"/>
<path d="M278.341 289.222H266.775V300.788H278.341V289.222Z" fill="#919E35"/>
<path d="M289.906 289.222H278.34V300.788H289.906V289.222Z" fill="#777C2E"/>
<path d="M301.472 289.222H289.906V300.788H301.472V289.222Z" fill="#777C2E"/>
<path d="M313.037 289.222H301.471V300.788H313.037V289.222Z" fill="#777C2E"/>
<path d="M220.512 300.786H208.947V312.353H220.512V300.786Z" fill="#919E35"/>
<path d="M232.078 300.786H220.512V312.353H232.078V300.786Z" fill="#919E35"/>
<path d="M266.775 300.786H255.209V312.353H266.775V300.786Z" fill="#919E35"/>
<path d="M278.341 300.786H266.775V312.353H278.341V300.786Z" fill="#777C2E"/>
<path d="M289.906 300.786H278.34V312.353H289.906V300.786Z" fill="#777C2E"/>
<path d="M301.472 300.786H289.906V312.353H301.472V300.786Z" fill="#777C2E"/>
<path d="M232.078 312.353H220.512V323.919H232.078V312.353Z" fill="#919E35"/>
<path d="M266.775 312.353H255.209V323.919H266.775V312.353Z" fill="#919E35"/>
<path d="M232.078 323.917H220.512V335.483H232.078V323.917Z" fill="#919E35"/>
<path d="M243.644 323.917H232.078V335.483H243.644V323.917Z" fill="#919E35"/>
<path d="M255.21 323.917H243.644V335.483H255.21V323.917Z" fill="#919E35"/>
<path d="M243.644 335.483H232.078V347.05H243.644V335.483Z" fill="#919E35"/>
<path d="M243.644 347.048H232.078V358.613H243.644V347.048Z" fill="#919E35"/>
<path d="M243.644 358.613H232.078V370.179H243.644V358.613Z" fill="#919E35"/>
<path d="M255.21 358.613H243.644V370.179H255.21V358.613Z" fill="#919E35"/>
<path d="M255.21 370.179H243.644V381.744H255.21V370.179Z" fill="#919E35"/>
<path d="M266.775 381.744H255.209V393.31H266.775V381.744Z" fill="#919E35"/>
<path d="M278.341 393.31H266.775V404.876H278.341V393.31Z" fill="#919E35"/>
<path d="M289.906 404.876H278.34V416.442H289.906V404.876Z" fill="#919E35"/>
</svg>
