<svg width="340" height="79" viewBox="0 0 340 79" fill="none" xmlns="http://www.w3.org/2000/svg">
<path d="M73.6469 41.075V39.1888V37.3024V35.4163H71.7605V33.5299V31.6437V29.7573H69.8743V27.8711V25.9847H67.9879V24.0986H66.1018V22.2121H64.2154V20.326H62.3292H60.4428V18.4396H58.5566H56.6702V16.5534H54.784H52.8976H51.0115V14.667H49.1251H47.2389H45.3525H43.4663H41.5799H39.6937H37.8073V16.5534H35.9212H34.0348H32.1486V18.4396H30.2622H28.376V20.326H26.4896H24.6034V22.2121H22.717V24.0986H20.8309V25.9847H18.9445V27.8711V29.7573H17.0583V31.6437V33.5299V35.4163H15.1719V37.3024V39.1888V41.075H13.2857V42.9614V44.8476V46.734H15.1719V48.6202V50.5066V52.3927V54.2791V56.1653V58.0517H17.0583V59.9379H18.9445V61.8243V63.7105H20.8309V65.5969H22.717V67.483H24.6034V69.3694H26.4896H28.376V71.2556H30.2622H32.1486V73.142H34.0348H35.9212H37.8073V75.0282H39.6937H41.5799H43.4663H45.3525H47.2389H49.1251H51.0115V73.142H52.8976H54.784H56.6702V71.2556H58.5566H60.4428V69.3694H62.3292H64.2154V67.483H66.1018V65.5969H67.9879V63.7105H69.8743V61.8243V59.9379H71.7605V58.0517V56.1653V54.2791H73.6469V52.3927V50.5066V48.6202V46.734H75.5331V44.8476V42.9614V41.075H73.6469Z" fill="#E7F1F2"/>
<path d="M85.5337 71.2559H83.6473V73.142H85.5337V71.2559Z" fill="#E7F1F2"/>
<path d="M85.5337 67.4832H83.6473V69.3693H85.5337V67.4832Z" fill="#E7F1F2"/>
<path d="M83.6473 71.2559H81.7608V73.142H83.6473V71.2559Z" fill="#E7F1F2"/>
<path d="M83.6473 67.4832H81.7609V69.3693H83.6473V67.4832Z" fill="#E7F1F2"/>
<path d="M87.4198 71.2559H85.5334V73.142H87.4198V71.2559Z" fill="#E7F1F2"/>
<path d="M87.4198 67.4832H85.5334V69.3693H87.4198V67.4832Z" fill="#E7F1F2"/>
<path d="M83.6471 71.2558V69.3694H81.7607V71.2558H83.6471Z" fill="#E7F1F2"/>
<path d="M87.4198 71.2558V69.3694H85.5333V71.2558H87.4198Z" fill="#E7F1F2"/>
<path d="M4.7009 64.6536H2.8145V66.54H4.7009V64.6536Z" fill="#E7F1F2"/>
<path d="M4.7009 60.8811H2.8145V62.7675H4.7009V60.8811Z" fill="#E7F1F2"/>
<path d="M2.81474 64.6536H0.928326V66.54H2.81474V64.6536Z" fill="#E7F1F2"/>
<path d="M2.81496 60.8811H0.928543V62.7675H2.81496V60.8811Z" fill="#E7F1F2"/>
<path d="M6.58731 64.6536H4.7009V66.54H6.58731V64.6536Z" fill="#E7F1F2"/>
<path d="M6.58731 60.8811H4.7009V62.7675H6.58731V60.8811Z" fill="#E7F1F2"/>
<path d="M2.81441 64.6537L2.81441 62.7673H0.927995L0.927995 64.6537H2.81441Z" fill="#E7F1F2"/>
<path d="M6.58698 64.6537V62.7673H4.70057V64.6537H6.58698Z" fill="#E7F1F2"/>
<path d="M23.6601 4.70532H21.7737V6.59173H23.6601V4.70532Z" fill="#E7F1F2"/>
<path d="M23.6601 0.932861H21.7737V2.81927H23.6601V0.932861Z" fill="#E7F1F2"/>
<path d="M21.774 4.70532H19.8875V6.59173H21.774V4.70532Z" fill="#E7F1F2"/>
<path d="M21.774 0.932861H19.8876V2.81927H21.774V0.932861Z" fill="#E7F1F2"/>
<path d="M25.5465 4.70532H23.6601V6.59173H25.5465V4.70532Z" fill="#E7F1F2"/>
<path d="M25.5465 0.932861H23.6601V2.81927H25.5465V0.932861Z" fill="#E7F1F2"/>
<path d="M21.7739 4.70574V2.81934L19.8874 2.81934V4.70574H21.7739Z" fill="#E7F1F2"/>
<path d="M25.5462 4.70574V2.81934L23.6598 2.81934V4.70574H25.5462Z" fill="#E7F1F2"/>
<path d="M34.9778 10.8943H33.0917V12.7807H34.9778V10.8943Z" fill="#DD840E"/>
<path d="M40.6368 10.8943H38.7504V12.7807H40.6368V10.8943Z" fill="#FED742"/>
<path d="M44.4094 10.8943H42.523V12.7807H44.4094V10.8943Z" fill="#F79D19"/>
<path d="M46.2958 10.8943H44.4094V12.7807H46.2958V10.8943Z" fill="#FDC507"/>
<path d="M50.0684 10.8943H48.182V12.7807H50.0684V10.8943Z" fill="#FED742"/>
<path d="M55.7273 10.8943H53.8409V12.7807H55.7273V10.8943Z" fill="#DD840E"/>
<path d="M31.2053 12.7808H29.3191V14.6672H31.2053V12.7808Z" fill="#FDC507"/>
<path d="M33.0917 12.7808H31.2053V14.6672H33.0917V12.7808Z" fill="#FDC507"/>
<path d="M34.9778 12.7808H33.0917V14.6672H34.9778V12.7808Z" fill="#F79D19"/>
<path d="M36.8642 12.7808H34.9778V14.6672H36.8642V12.7808Z" fill="#F79D19"/>
<path d="M38.7504 12.7808H36.8642V14.6672H38.7504V12.7808Z" fill="#FED742"/>
<path d="M40.6368 12.7808H38.7504V14.6672H40.6368V12.7808Z" fill="#FED742"/>
<path d="M42.523 12.7808H40.6368V14.6672H42.523V12.7808Z" fill="#FED742"/>
<path d="M44.4094 12.7808H42.523V14.6672H44.4094V12.7808Z" fill="#FDC507"/>
<path d="M46.2958 12.7808H44.4094V14.6672H46.2958V12.7808Z" fill="#F79D19"/>
<path d="M48.1822 12.7808H46.2958V14.6672H48.1822V12.7808Z" fill="#FED742"/>
<path d="M50.0684 12.7808H48.182V14.6672H50.0684V12.7808Z" fill="#FED742"/>
<path d="M51.9548 12.7808H50.0684V14.6672H51.9548V12.7808Z" fill="#FED742"/>
<path d="M53.8409 12.7808H51.9545V14.6672H53.8409V12.7808Z" fill="#F79D19"/>
<path d="M55.7273 12.7808H53.8409V14.6672H55.7273V12.7808Z" fill="#F79D19"/>
<path d="M57.6135 12.7808H55.7271V14.6672H57.6135V12.7808Z" fill="#FDC507"/>
<path d="M59.4999 12.7808H57.6135V14.6672H59.4999V12.7808Z" fill="#FDC507"/>
<path d="M31.2053 14.667H29.3191V16.5534H31.2053V14.667Z" fill="#FDC507"/>
<path d="M33.0917 14.667H31.2053V16.5534H33.0917V14.667Z" fill="#FDC507"/>
<path d="M34.9778 14.667H33.0917V16.5534H34.9778V14.667Z" fill="#FDC507"/>
<path d="M36.8642 14.667H34.9778V16.5534H36.8642V14.667Z" fill="#F79D19"/>
<path d="M38.7504 14.667H36.8642V16.5534H38.7504V14.667Z" fill="#DD840E"/>
<path d="M40.6368 14.667H38.7504V16.5534H40.6368V14.667Z" fill="#FED742"/>
<path d="M42.523 14.667H40.6368V16.5534H42.523V14.667Z" fill="#FED742"/>
<path d="M44.4094 14.667H42.523V16.5534H44.4094V14.667Z" fill="#F79D19"/>
<path d="M46.2958 14.667H44.4094V16.5534H46.2958V14.667Z" fill="#FDC507"/>
<path d="M48.1822 14.667H46.2958V16.5534H48.1822V14.667Z" fill="#FED742"/>
<path d="M50.0684 14.667H48.182V16.5534H50.0684V14.667Z" fill="#FED742"/>
<path d="M51.9548 14.667H50.0684V16.5534H51.9548V14.667Z" fill="#DD840E"/>
<path d="M53.8409 14.667H51.9545V16.5534H53.8409V14.667Z" fill="#F79D19"/>
<path d="M55.7273 14.667H53.8409V16.5534H55.7273V14.667Z" fill="#FDC507"/>
<path d="M57.6135 14.667H55.7271V16.5534H57.6135V14.667Z" fill="#FDC507"/>
<path d="M59.4999 14.667H57.6135V16.5534H59.4999V14.667Z" fill="#FDC507"/>
<path d="M29.3191 16.5535H27.4329V18.4399H29.3191V16.5535Z" fill="#DD840E"/>
<path d="M31.2053 16.5535H29.3191V18.4399H31.2053V16.5535Z" fill="#F79D19"/>
<path d="M33.0917 16.5535H31.2053V18.4399H33.0917V16.5535Z" fill="#FDC507"/>
<path d="M34.9778 16.5535H33.0917V18.4399H34.9778V16.5535Z" fill="#FDC507"/>
<path d="M36.8642 16.5535H34.9778V18.4399H36.8642V16.5535Z" fill="#FDC507"/>
<path d="M38.7504 16.5535H36.8642V18.4399H38.7504V16.5535Z" fill="#F79D19"/>
<path d="M40.6368 16.5535H38.7504V18.4399H40.6368V16.5535Z" fill="#F79D19"/>
<path d="M42.523 16.5535H40.6368V18.4399H42.523V16.5535Z" fill="#FED742"/>
<path d="M44.4094 16.5535H42.523V18.4399H44.4094V16.5535Z" fill="#FDC507"/>
<path d="M46.2958 16.5535H44.4094V18.4399H46.2958V16.5535Z" fill="#F79D19"/>
<path d="M48.1822 16.5535H46.2958V18.4399H48.1822V16.5535Z" fill="#FED742"/>
<path d="M50.0684 16.5535H48.182V18.4399H50.0684V16.5535Z" fill="#F79D19"/>
<path d="M51.9548 16.5535H50.0684V18.4399H51.9548V16.5535Z" fill="#F79D19"/>
<path d="M53.8409 16.5535H51.9545V18.4399H53.8409V16.5535Z" fill="#FDC507"/>
<path d="M55.7273 16.5535H53.8409V18.4399H55.7273V16.5535Z" fill="#FDC507"/>
<path d="M57.6135 16.5535H55.7271V18.4399H57.6135V16.5535Z" fill="#FDC507"/>
<path d="M59.4999 16.5535H57.6135V18.4399H59.4999V16.5535Z" fill="#F79D19"/>
<path d="M61.3861 16.5535H59.4997V18.4399H61.3861V16.5535Z" fill="#DD840E"/>
<path d="M31.2053 18.4397H29.3191V20.3261H31.2053V18.4397Z" fill="#F79D19"/>
<path d="M33.0917 18.4397H31.2053V20.3261H33.0917V18.4397Z" fill="#F79D19"/>
<path d="M34.9778 18.4397H33.0917V20.3261H34.9778V18.4397Z" fill="#FDC507"/>
<path d="M36.8642 18.4397H34.9778V20.3261H36.8642V18.4397Z" fill="#FDC507"/>
<path d="M38.7504 18.4397H36.8642V20.3261H38.7504V18.4397Z" fill="#FDC507"/>
<path d="M40.6368 18.4397H38.7504V20.3261H40.6368V18.4397Z" fill="#F79D19"/>
<path d="M42.523 18.4397H40.6368V20.3261H42.523V18.4397Z" fill="#DD840E"/>
<path d="M44.4094 18.4397H42.523V20.3261H44.4094V18.4397Z" fill="#FDC507"/>
<path d="M46.2958 18.4397H44.4094V20.3261H46.2958V18.4397Z" fill="#FDC507"/>
<path d="M48.1822 18.4397H46.2958V20.3261H48.1822V18.4397Z" fill="#DD840E"/>
<path d="M50.0684 18.4397H48.182V20.3261H50.0684V18.4397Z" fill="#F79D19"/>
<path d="M51.9548 18.4397H50.0684V20.3261H51.9548V18.4397Z" fill="#FDC507"/>
<path d="M53.8409 18.4397H51.9545V20.3261H53.8409V18.4397Z" fill="#FDC507"/>
<path d="M55.7273 18.4397H53.8409V20.3261H55.7273V18.4397Z" fill="#FDC507"/>
<path d="M57.6135 18.4397H55.7271V20.3261H57.6135V18.4397Z" fill="#F79D19"/>
<path d="M59.4999 18.4397H57.6135V20.3261H59.4999V18.4397Z" fill="#F79D19"/>
<path d="M31.2053 20.3259H29.3191V22.2123H31.2053V20.3259Z" fill="#FED742"/>
<path d="M33.0917 20.3259H31.2053V22.2123H33.0917V20.3259Z" fill="#DD840E"/>
<path d="M34.9778 20.3259H33.0917V22.2123H34.9778V20.3259Z" fill="#F79D19"/>
<path d="M36.8642 20.3259H34.9778V22.2123H36.8642V20.3259Z" fill="#FDC507"/>
<path d="M38.7504 20.3259H36.8642V22.2123H38.7504V20.3259Z" fill="#FDC507"/>
<path d="M40.6368 20.3259H38.7504V22.2123H40.6368V20.3259Z" fill="#FDC507"/>
<path d="M42.523 20.3259H40.6368V22.2123H42.523V20.3259Z" fill="#7A3E15"/>
<path d="M44.4094 20.3259H42.523V22.2123H44.4094V20.3259Z" fill="#68310C"/>
<path d="M46.2958 20.3259H44.4094V22.2123H46.2958V20.3259Z" fill="#68310C"/>
<path d="M48.1822 20.3259H46.2958V22.2123H48.1822V20.3259Z" fill="#7A3E15"/>
<path d="M50.0684 20.3259H48.182V22.2123H50.0684V20.3259Z" fill="#FDC507"/>
<path d="M51.9548 20.3259H50.0684V22.2123H51.9548V20.3259Z" fill="#FDC507"/>
<path d="M53.8409 20.3259H51.9545V22.2123H53.8409V20.3259Z" fill="#FDC507"/>
<path d="M55.7273 20.3259H53.8409V22.2123H55.7273V20.3259Z" fill="#DD840E"/>
<path d="M57.6135 20.3259H55.7271V22.2123H57.6135V20.3259Z" fill="#F79D19"/>
<path d="M59.4999 20.3259H57.6135V22.2123H59.4999V20.3259Z" fill="#FED742"/>
<path d="M27.4329 22.2122H25.5465V24.0986H27.4329V22.2122Z" fill="#FED742"/>
<path d="M29.3191 22.2122H27.4329V24.0986H29.3191V22.2122Z" fill="#FED742"/>
<path d="M31.2053 22.2122H29.3191V24.0986H31.2053V22.2122Z" fill="#FED742"/>
<path d="M33.0917 22.2122H31.2053V24.0986H33.0917V22.2122Z" fill="#FED742"/>
<path d="M34.9778 22.2122H33.0917V24.0986H34.9778V22.2122Z" fill="#F79D19"/>
<path d="M36.8642 22.2122H34.9778V24.0986H36.8642V22.2122Z" fill="#F79D19"/>
<path d="M38.7504 22.2122H36.8642V24.0986H38.7504V22.2122Z" fill="#FDC507"/>
<path d="M40.6368 22.2122H38.7504V24.0986H40.6368V22.2122Z" fill="#532404"/>
<path d="M42.523 22.2122H40.6368V24.0986H42.523V22.2122Z" fill="#68310C"/>
<path d="M44.4094 22.2122H42.523V24.0986H44.4094V22.2122Z" fill="#68310C"/>
<path d="M46.2958 22.2122H44.4094V24.0986H46.2958V22.2122Z" fill="#68310C"/>
<path d="M48.1822 22.2122H46.2958V24.0986H48.1822V22.2122Z" fill="#68310C"/>
<path d="M50.0684 22.2122H48.182V24.0986H50.0684V22.2122Z" fill="#532404"/>
<path d="M51.9548 22.2122H50.0684V24.0986H51.9548V22.2122Z" fill="#FDC507"/>
<path d="M53.8409 22.2122H51.9545V24.0986H53.8409V22.2122Z" fill="#F79D19"/>
<path d="M55.7273 22.2122H53.8409V24.0986H55.7273V22.2122Z" fill="#F79D19"/>
<path d="M57.6135 22.2122H55.7271V24.0986H57.6135V22.2122Z" fill="#FED742"/>
<path d="M59.4999 22.2122H57.6135V24.0986H59.4999V22.2122Z" fill="#FED742"/>
<path d="M61.3861 22.2122H59.4997V24.0986H61.3861V22.2122Z" fill="#FED742"/>
<path d="M63.2725 22.2122H61.3861V24.0986H63.2725V22.2122Z" fill="#FED742"/>
<path d="M31.2053 24.0986H29.3191V25.985H31.2053V24.0986Z" fill="#FED742"/>
<path d="M33.0917 24.0986H31.2053V25.985H33.0917V24.0986Z" fill="#FED742"/>
<path d="M34.9778 24.0986H33.0917V25.985H34.9778V24.0986Z" fill="#FED742"/>
<path d="M36.8642 24.0986H34.9778V25.985H36.8642V24.0986Z" fill="#DD840E"/>
<path d="M38.7504 24.0986H36.8642V25.985H38.7504V24.0986Z" fill="#7A3E15"/>
<path d="M40.6368 24.0986H38.7504V25.985H40.6368V24.0986Z" fill="#68310C"/>
<path d="M42.523 24.0986H40.6368V25.985H42.523V24.0986Z" fill="#844419"/>
<path d="M44.4094 24.0986H42.523V25.985H44.4094V24.0986Z" fill="#532404"/>
<path d="M46.2958 24.0986H44.4094V25.985H46.2958V24.0986Z" fill="#532404"/>
<path d="M48.1822 24.0986H46.2958V25.985H48.1822V24.0986Z" fill="#844419"/>
<path d="M50.0684 24.0986H48.182V25.985H50.0684V24.0986Z" fill="#68310C"/>
<path d="M51.9548 24.0986H50.0684V25.985H51.9548V24.0986Z" fill="#7A3E15"/>
<path d="M53.8409 24.0986H51.9545V25.985H53.8409V24.0986Z" fill="#DD840E"/>
<path d="M55.7273 24.0986H53.8409V25.985H55.7273V24.0986Z" fill="#FED742"/>
<path d="M57.6135 24.0986H55.7271V25.985H57.6135V24.0986Z" fill="#FED742"/>
<path d="M59.4999 24.0986H57.6135V25.985H59.4999V24.0986Z" fill="#FED742"/>
<path d="M27.4329 25.9849H25.5465V27.8713H27.4329V25.9849Z" fill="#F79D19"/>
<path d="M29.3191 25.9849H27.4329V27.8713H29.3191V25.9849Z" fill="#FDC507"/>
<path d="M31.2053 25.9849H29.3191V27.8713H31.2053V25.9849Z" fill="#F79D19"/>
<path d="M33.0917 25.9849H31.2053V27.8713H33.0917V25.9849Z" fill="#FDC507"/>
<path d="M34.9778 25.9849H33.0917V27.8713H34.9778V25.9849Z" fill="#F79D19"/>
<path d="M36.8642 25.9849H34.9778V27.8713H36.8642V25.9849Z" fill="#FDC507"/>
<path d="M38.7504 25.9849H36.8642V27.8713H38.7504V25.9849Z" fill="#68310C"/>
<path d="M40.6368 25.9849H38.7504V27.8713H40.6368V25.9849Z" fill="#68310C"/>
<path d="M42.523 25.9849H40.6368V27.8713H42.523V25.9849Z" fill="#532404"/>
<path d="M44.4094 25.9849H42.523V27.8713H44.4094V25.9849Z" fill="#44230E"/>
<path d="M46.2958 25.9849H44.4094V27.8713H46.2958V25.9849Z" fill="#532404"/>
<path d="M48.1822 25.9849H46.2958V27.8713H48.1822V25.9849Z" fill="#532404"/>
<path d="M50.0684 25.9849H48.182V27.8713H50.0684V25.9849Z" fill="#68310C"/>
<path d="M51.9548 25.9849H50.0684V27.8713H51.9548V25.9849Z" fill="#68310C"/>
<path d="M53.8409 25.9849H51.9545V27.8713H53.8409V25.9849Z" fill="#FDC507"/>
<path d="M55.7273 25.9849H53.8409V27.8713H55.7273V25.9849Z" fill="#FDC507"/>
<path d="M57.6135 25.9849H55.7271V27.8713H57.6135V25.9849Z" fill="#F79D19"/>
<path d="M59.4999 25.9849H57.6135V27.8713H59.4999V25.9849Z" fill="#FDC507"/>
<path d="M61.3861 25.9849H59.4997V27.8713H61.3861V25.9849Z" fill="#F79D19"/>
<path d="M63.2725 25.9849H61.3861V27.8713H63.2725V25.9849Z" fill="#FDC507"/>
<path d="M27.4329 27.8711H25.5465V29.7575H27.4329V27.8711Z" fill="#FDC507"/>
<path d="M29.3191 27.8711H27.4329V29.7575H29.3191V27.8711Z" fill="#F79D19"/>
<path d="M31.2053 27.8711H29.3191V29.7575H31.2053V27.8711Z" fill="#FDC507"/>
<path d="M33.0917 27.8711H31.2053V29.7575H33.0917V27.8711Z" fill="#F79D19"/>
<path d="M34.9778 27.8711H33.0917V29.7575H34.9778V27.8711Z" fill="#FDC507"/>
<path d="M36.8642 27.8711H34.9778V29.7575H36.8642V27.8711Z" fill="#FDC507"/>
<path d="M38.7504 27.8711H36.8642V29.7575H38.7504V27.8711Z" fill="#532404"/>
<path d="M40.6368 27.8711H38.7504V29.7575H40.6368V27.8711Z" fill="#68310C"/>
<path d="M42.523 27.8711H40.6368V29.7575H42.523V27.8711Z" fill="#532404"/>
<path d="M44.4094 27.8711H42.523V29.7575H44.4094V27.8711Z" fill="#532404"/>
<path d="M46.2958 27.8711H44.4094V29.7575H46.2958V27.8711Z" fill="#44230E"/>
<path d="M48.1822 27.8711H46.2958V29.7575H48.1822V27.8711Z" fill="#532404"/>
<path d="M50.0684 27.8711H48.182V29.7575H50.0684V27.8711Z" fill="#68310C"/>
<path d="M51.9548 27.8711H50.0684V29.7575H51.9548V27.8711Z" fill="#532404"/>
<path d="M53.8409 27.8711H51.9545V29.7575H53.8409V27.8711Z" fill="#FDC507"/>
<path d="M55.7273 27.8711H53.8409V29.7575H55.7273V27.8711Z" fill="#F79D19"/>
<path d="M57.6135 27.8711H55.7271V29.7575H57.6135V27.8711Z" fill="#FDC507"/>
<path d="M59.4999 27.8711H57.6135V29.7575H59.4999V27.8711Z" fill="#F79D19"/>
<path d="M61.3861 27.8711H59.4997V29.7575H61.3861V27.8711Z" fill="#FDC507"/>
<path d="M63.2725 27.8711H61.3861V29.7575H63.2725V27.8711Z" fill="#F79D19"/>
<path d="M31.2053 29.7573H29.3191V31.6437H31.2053V29.7573Z" fill="#FED742"/>
<path d="M33.0917 29.7573H31.2053V31.6437H33.0917V29.7573Z" fill="#FED742"/>
<path d="M34.9778 29.7573H33.0917V31.6437H34.9778V29.7573Z" fill="#FED742"/>
<path d="M36.8642 29.7573H34.9778V31.6437H36.8642V29.7573Z" fill="#DD840E"/>
<path d="M38.7504 29.7573H36.8642V31.6437H38.7504V29.7573Z" fill="#7A3E15"/>
<path d="M40.6368 29.7573H38.7504V31.6437H40.6368V29.7573Z" fill="#68310C"/>
<path d="M42.523 29.7573H40.6368V31.6437H42.523V29.7573Z" fill="#844419"/>
<path d="M44.4094 29.7573H42.523V31.6437H44.4094V29.7573Z" fill="#532404"/>
<path d="M46.2958 29.7573H44.4094V31.6437H46.2958V29.7573Z" fill="#532404"/>
<path d="M48.1822 29.7573H46.2958V31.6437H48.1822V29.7573Z" fill="#844419"/>
<path d="M50.0684 29.7573H48.182V31.6437H50.0684V29.7573Z" fill="#68310C"/>
<path d="M51.9548 29.7573H50.0684V31.6437H51.9548V29.7573Z" fill="#7A3E15"/>
<path d="M53.8409 29.7573H51.9545V31.6437H53.8409V29.7573Z" fill="#DD840E"/>
<path d="M55.7273 29.7573H53.8409V31.6437H55.7273V29.7573Z" fill="#FED742"/>
<path d="M57.6135 29.7573H55.7271V31.6437H57.6135V29.7573Z" fill="#FED742"/>
<path d="M59.4999 29.7573H57.6135V31.6437H59.4999V29.7573Z" fill="#FED742"/>
<path d="M27.4329 31.6438H25.5465V33.5302H27.4329V31.6438Z" fill="#FED742"/>
<path d="M29.3191 31.6438H27.4329V33.5302H29.3191V31.6438Z" fill="#FED742"/>
<path d="M31.2053 31.6438H29.3191V33.5302H31.2053V31.6438Z" fill="#FED742"/>
<path d="M33.0917 31.6438H31.2053V33.5302H33.0917V31.6438Z" fill="#FED742"/>
<path d="M34.9778 31.6438H33.0917V33.5302H34.9778V31.6438Z" fill="#F79D19"/>
<path d="M36.8642 31.6438H34.9778V33.5302H36.8642V31.6438Z" fill="#F79D19"/>
<path d="M38.7504 31.6438H36.8642V33.5302H38.7504V31.6438Z" fill="#FDC507"/>
<path d="M40.6368 31.6438H38.7504V33.5302H40.6368V31.6438Z" fill="#532404"/>
<path d="M42.523 31.6438H40.6368V33.5302H42.523V31.6438Z" fill="#68310C"/>
<path d="M44.4094 31.6438H42.523V33.5302H44.4094V31.6438Z" fill="#68310C"/>
<path d="M46.2958 31.6438H44.4094V33.5302H46.2958V31.6438Z" fill="#68310C"/>
<path d="M48.1822 31.6438H46.2958V33.5302H48.1822V31.6438Z" fill="#68310C"/>
<path d="M50.0684 31.6438H48.182V33.5302H50.0684V31.6438Z" fill="#532404"/>
<path d="M51.9548 31.6438H50.0684V33.5302H51.9548V31.6438Z" fill="#FDC507"/>
<path d="M53.8409 31.6438H51.9545V33.5302H53.8409V31.6438Z" fill="#F79D19"/>
<path d="M55.7273 31.6438H53.8409V33.5302H55.7273V31.6438Z" fill="#F79D19"/>
<path d="M57.6135 31.6438H55.7271V33.5302H57.6135V31.6438Z" fill="#FED742"/>
<path d="M59.4999 31.6438H57.6135V33.5302H59.4999V31.6438Z" fill="#FED742"/>
<path d="M61.3861 31.6438H59.4997V33.5302H61.3861V31.6438Z" fill="#FED742"/>
<path d="M63.2725 31.6438H61.3861V33.5302H63.2725V31.6438Z" fill="#FED742"/>
<path d="M31.2053 33.5298H29.3191V35.4162H31.2053V33.5298Z" fill="#FED742"/>
<path d="M33.0917 33.5298H31.2053V35.4162H33.0917V33.5298Z" fill="#DD840E"/>
<path d="M34.9778 33.5298H33.0917V35.4162H34.9778V33.5298Z" fill="#F79D19"/>
<path d="M36.8642 33.5298H34.9778V35.4162H36.8642V33.5298Z" fill="#FDC507"/>
<path d="M38.7504 33.5298H36.8642V35.4162H38.7504V33.5298Z" fill="#FDC507"/>
<path d="M40.6368 33.5298H38.7504V35.4162H40.6368V33.5298Z" fill="#FDC507"/>
<path d="M42.523 33.5298H40.6368V35.4162H42.523V33.5298Z" fill="#7A3E15"/>
<path d="M44.4094 33.5298H42.523V35.4162H44.4094V33.5298Z" fill="#68310C"/>
<path d="M46.2958 33.5298H44.4094V35.4162H46.2958V33.5298Z" fill="#68310C"/>
<path d="M48.1822 33.5298H46.2958V35.4162H48.1822V33.5298Z" fill="#7A3E15"/>
<path d="M50.0684 33.5298H48.182V35.4162H50.0684V33.5298Z" fill="#FDC507"/>
<path d="M51.9548 33.5298H50.0684V35.4162H51.9548V33.5298Z" fill="#FDC507"/>
<path d="M53.8409 33.5298H51.9545V35.4162H53.8409V33.5298Z" fill="#FDC507"/>
<path d="M55.7273 33.5298H53.8409V35.4162H55.7273V33.5298Z" fill="#F79D19"/>
<path d="M57.6135 33.5298H55.7271V35.4162H57.6135V33.5298Z" fill="#DD840E"/>
<path d="M59.4999 33.5298H57.6135V35.4162H59.4999V33.5298Z" fill="#FED742"/>
<path d="M31.2053 35.4163H29.3191V37.3027H31.2053V35.4163Z" fill="#F79D19"/>
<path d="M33.0917 35.4163H31.2053V37.3027H33.0917V35.4163Z" fill="#F79D19"/>
<path d="M34.9778 35.4163H33.0917V37.3027H34.9778V35.4163Z" fill="#FDC507"/>
<path d="M36.8642 35.4163H34.9778V37.3027H36.8642V35.4163Z" fill="#FDC507"/>
<path d="M38.7504 35.4163H36.8642V37.3027H38.7504V35.4163Z" fill="#FDC507"/>
<path d="M40.6368 35.4163H38.7504V37.3027H40.6368V35.4163Z" fill="#F79D19"/>
<path d="M42.523 35.4163H40.6368V37.3027H42.523V35.4163Z" fill="#DD840E"/>
<path d="M44.4094 35.4163H42.523V37.3027H44.4094V35.4163Z" fill="#FDC507"/>
<path d="M46.2958 35.4163H44.4094V37.3027H46.2958V35.4163Z" fill="#FDC507"/>
<path d="M48.1822 35.4163H46.2958V37.3027H48.1822V35.4163Z" fill="#DD840E"/>
<path d="M50.0684 35.4163H48.182V37.3027H50.0684V35.4163Z" fill="#F79D19"/>
<path d="M51.9548 35.4163H50.0684V37.3027H51.9548V35.4163Z" fill="#FDC507"/>
<path d="M53.8409 35.4163H51.9545V37.3027H53.8409V35.4163Z" fill="#FDC507"/>
<path d="M55.7273 35.4163H53.8409V37.3027H55.7273V35.4163Z" fill="#FDC507"/>
<path d="M57.6135 35.4163H55.7271V37.3027H57.6135V35.4163Z" fill="#F79D19"/>
<path d="M59.4999 35.4163H57.6135V37.3027H59.4999V35.4163Z" fill="#F79D19"/>
<path d="M29.3191 37.3025H27.4329V39.1889H29.3191V37.3025Z" fill="#DD840E"/>
<path d="M31.2053 37.3025H29.3191V39.1889H31.2053V37.3025Z" fill="#F79D19"/>
<path d="M33.0917 37.3025H31.2053V39.1889H33.0917V37.3025Z" fill="#FDC507"/>
<path d="M34.9778 37.3025H33.0917V39.1889H34.9778V37.3025Z" fill="#FDC507"/>
<path d="M36.8642 37.3025H34.9778V39.1889H36.8642V37.3025Z" fill="#FDC507"/>
<path d="M38.7504 37.3025H36.8642V39.1889H38.7504V37.3025Z" fill="#F79D19"/>
<path d="M40.6368 37.3025H38.7504V39.1889H40.6368V37.3025Z" fill="#F79D19"/>
<path d="M42.523 37.3025H40.6368V39.1889H42.523V37.3025Z" fill="#FED742"/>
<path d="M44.4094 37.3025H42.523V39.1889H44.4094V37.3025Z" fill="#F79D19"/>
<path d="M46.2958 37.3025H44.4094V39.1889H46.2958V37.3025Z" fill="#FDC507"/>
<path d="M48.1822 37.3025H46.2958V39.1889H48.1822V37.3025Z" fill="#FED742"/>
<path d="M50.0684 37.3025H48.182V39.1889H50.0684V37.3025Z" fill="#F79D19"/>
<path d="M51.9548 37.3025H50.0684V39.1889H51.9548V37.3025Z" fill="#F79D19"/>
<path d="M53.8409 37.3025H51.9545V39.1889H53.8409V37.3025Z" fill="#FDC507"/>
<path d="M55.7273 37.3025H53.8409V39.1889H55.7273V37.3025Z" fill="#FDC507"/>
<path d="M57.6135 37.3025H55.7271V39.1889H57.6135V37.3025Z" fill="#FDC507"/>
<path d="M59.4999 37.3025H57.6135V39.1889H59.4999V37.3025Z" fill="#F79D19"/>
<path d="M61.3861 37.3025H59.4997V39.1889H61.3861V37.3025Z" fill="#DD840E"/>
<path d="M31.2053 39.1887H29.3191V41.0751H31.2053V39.1887Z" fill="#FDC507"/>
<path d="M33.0917 39.1887H31.2053V41.0751H33.0917V39.1887Z" fill="#FDC507"/>
<path d="M34.9778 39.1887H33.0917V41.0751H34.9778V39.1887Z" fill="#FDC507"/>
<path d="M36.8642 39.1887H34.9778V41.0751H36.8642V39.1887Z" fill="#F79D19"/>
<path d="M38.7504 39.1887H36.8642V41.0751H38.7504V39.1887Z" fill="#DD840E"/>
<path d="M40.6368 39.1887H38.7504V41.0751H40.6368V39.1887Z" fill="#FED742"/>
<path d="M42.523 39.1887H40.6368V41.0751H42.523V39.1887Z" fill="#FED742"/>
<path d="M44.4094 39.1887H42.523V41.0751H44.4094V39.1887Z" fill="#FDC507"/>
<path d="M46.2958 39.1887H44.4094V41.0751H46.2958V39.1887Z" fill="#F79D19"/>
<path d="M48.1822 39.1887H46.2958V41.0751H48.1822V39.1887Z" fill="#FED742"/>
<path d="M50.0684 39.1887H48.182V41.0751H50.0684V39.1887Z" fill="#FED742"/>
<path d="M51.9548 39.1887H50.0684V41.0751H51.9548V39.1887Z" fill="#DD840E"/>
<path d="M53.8409 39.1887H51.9545V41.0751H53.8409V39.1887Z" fill="#F79D19"/>
<path d="M55.7273 39.1887H53.8409V41.0751H55.7273V39.1887Z" fill="#FDC507"/>
<path d="M57.6135 39.1887H55.7271V41.0751H57.6135V39.1887Z" fill="#FDC507"/>
<path d="M59.4999 39.1887H57.6135V41.0751H59.4999V39.1887Z" fill="#FDC507"/>
<path d="M31.2053 41.075H29.3191V42.9614H31.2053V41.075Z" fill="#FDC507"/>
<path d="M33.0917 41.075H31.2053V42.9614H33.0917V41.075Z" fill="#FDC507"/>
<path d="M34.9778 41.075H33.0917V42.9614H34.9778V41.075Z" fill="#F79D19"/>
<path d="M36.8642 41.075H34.9778V42.9614H36.8642V41.075Z" fill="#F79D19"/>
<path d="M38.7504 41.075H36.8642V42.9614H38.7504V41.075Z" fill="#FED742"/>
<path d="M40.6368 41.075H38.7504V42.9614H40.6368V41.075Z" fill="#FED742"/>
<path d="M42.523 41.075H40.6368V42.9614H42.523V41.075Z" fill="#FED742"/>
<path d="M44.4094 41.075H42.523V42.9614H44.4094V41.075Z" fill="#F79D19"/>
<path d="M46.2958 41.075H44.4094V42.9614H46.2958V41.075Z" fill="#FDC507"/>
<path d="M48.1822 41.075H46.2958V42.9614H48.1822V41.075Z" fill="#FED742"/>
<path d="M50.0684 41.075H48.182V42.9614H50.0684V41.075Z" fill="#FED742"/>
<path d="M51.9548 41.075H50.0684V42.9614H51.9548V41.075Z" fill="#FED742"/>
<path d="M53.8409 41.075H51.9545V42.9614H53.8409V41.075Z" fill="#F79D19"/>
<path d="M55.7273 41.075H53.8409V42.9614H55.7273V41.075Z" fill="#F79D19"/>
<path d="M57.6135 41.075H55.7271V42.9614H57.6135V41.075Z" fill="#FDC507"/>
<path d="M59.4999 41.075H57.6135V42.9614H59.4999V41.075Z" fill="#FDC507"/>
<path d="M34.9778 42.9614H33.0917V44.8478H34.9778V42.9614Z" fill="#DD840E"/>
<path d="M40.6368 42.9614H38.7504V44.8478H40.6368V42.9614Z" fill="#FED742"/>
<path d="M42.523 42.9614H40.6368V44.8478H42.523V42.9614Z" fill="#777C2E"/>
<path d="M44.4094 42.9614H42.523V44.8478H44.4094V42.9614Z" fill="#FDC507"/>
<path d="M46.2958 42.9614H44.4094V44.8478H46.2958V42.9614Z" fill="#F79D19"/>
<path d="M50.0684 42.9614H48.182V44.8478H50.0684V42.9614Z" fill="#FED742"/>
<path d="M55.7273 42.9614H53.8409V44.8478H55.7273V42.9614Z" fill="#DD840E"/>
<path d="M27.4329 44.8477H25.5465V46.7341H27.4329V44.8477Z" fill="#AAB242"/>
<path d="M29.3191 44.8477H27.4329V46.7341H29.3191V44.8477Z" fill="#AAB242"/>
<path d="M31.2053 44.8477H29.3191V46.7341H31.2053V44.8477Z" fill="#AAB242"/>
<path d="M42.523 44.8477H40.6368V46.7341H42.523V44.8477Z" fill="#777C2E"/>
<path d="M44.4094 44.8477H42.523V46.7341H44.4094V44.8477Z" fill="#777C2E"/>
<path d="M46.2958 44.8477H44.4094V46.7341H46.2958V44.8477Z" fill="#777C2E"/>
<path d="M27.4329 46.7339H25.5465V48.6201H27.4329V46.7339Z" fill="#919E35"/>
<path d="M29.3191 46.7339H27.4329V48.6201H29.3191V46.7339Z" fill="#919E35"/>
<path d="M31.2053 46.7339H29.3191V48.6201H31.2053V46.7339Z" fill="#AAB242"/>
<path d="M33.0917 46.7339H31.2053V48.6201H33.0917V46.7339Z" fill="#AAB242"/>
<path d="M44.4094 46.7339H42.523V48.6201H44.4094V46.7339Z" fill="#919E35"/>
<path d="M27.4329 48.6201H25.5465V50.5065H27.4329V48.6201Z" fill="#777C2E"/>
<path d="M29.3191 48.6201H27.4329V50.5065H29.3191V48.6201Z" fill="#919E35"/>
<path d="M31.2053 48.6201H29.3191V50.5065H31.2053V48.6201Z" fill="#919E35"/>
<path d="M33.0917 48.6201H31.2053V50.5065H33.0917V48.6201Z" fill="#AAB242"/>
<path d="M34.9778 48.6201H33.0917V50.5065H34.9778V48.6201Z" fill="#AAB242"/>
<path d="M36.8642 48.6201H34.9778V50.5065H36.8642V48.6201Z" fill="#AAB242"/>
<path d="M44.4094 48.6201H42.523V50.5065H44.4094V48.6201Z" fill="#919E35"/>
<path d="M57.6135 48.6201H55.7271V50.5065H57.6135V48.6201Z" fill="#AAB242"/>
<path d="M59.4999 48.6201H57.6135V50.5065H59.4999V48.6201Z" fill="#AAB242"/>
<path d="M61.3861 48.6201H59.4997V50.5065H61.3861V48.6201Z" fill="#AAB242"/>
<path d="M29.3191 50.5066H27.4329V52.393H29.3191V50.5066Z" fill="#777C2E"/>
<path d="M31.2053 50.5066H29.3191V52.393H31.2053V50.5066Z" fill="#919E35"/>
<path d="M33.0917 50.5066H31.2053V52.393H33.0917V50.5066Z" fill="#919E35"/>
<path d="M34.9778 50.5066H33.0917V52.393H34.9778V50.5066Z" fill="#919E35"/>
<path d="M36.8642 50.5066H34.9778V52.393H36.8642V50.5066Z" fill="#AAB242"/>
<path d="M38.7504 50.5066H36.8642V52.393H38.7504V50.5066Z" fill="#AAB242"/>
<path d="M44.4094 50.5066H42.523V52.393H44.4094V50.5066Z" fill="#919E35"/>
<path d="M53.8409 50.5066H51.9545V52.393H53.8409V50.5066Z" fill="#AAB242"/>
<path d="M55.7273 50.5066H53.8409V52.393H55.7273V50.5066Z" fill="#AAB242"/>
<path d="M57.6135 50.5066H55.7271V52.393H57.6135V50.5066Z" fill="#AAB242"/>
<path d="M59.4999 50.5066H57.6135V52.393H59.4999V50.5066Z" fill="#919E35"/>
<path d="M61.3861 50.5066H59.4997V52.393H61.3861V50.5066Z" fill="#777C2E"/>
<path d="M29.3191 52.3928H27.4329V54.2792H29.3191V52.3928Z" fill="#777C2E"/>
<path d="M31.2053 52.3928H29.3191V54.2792H31.2053V52.3928Z" fill="#777C2E"/>
<path d="M33.0917 52.3928H31.2053V54.2792H33.0917V52.3928Z" fill="#919E35"/>
<path d="M34.9778 52.3928H33.0917V54.2792H34.9778V52.3928Z" fill="#919E35"/>
<path d="M36.8642 52.3928H34.9778V54.2792H36.8642V52.3928Z" fill="#919E35"/>
<path d="M38.7504 52.3928H36.8642V54.2792H38.7504V52.3928Z" fill="#AAB242"/>
<path d="M42.523 52.3928H40.6368V54.2792H42.523V52.3928Z" fill="#919E35"/>
<path d="M44.4094 52.3928H42.523V54.2792H44.4094V52.3928Z" fill="#919E35"/>
<path d="M51.9548 52.3928H50.0684V54.2792H51.9548V52.3928Z" fill="#AAB242"/>
<path d="M53.8409 52.3928H51.9545V54.2792H53.8409V52.3928Z" fill="#AAB242"/>
<path d="M55.7273 52.3928H53.8409V54.2792H55.7273V52.3928Z" fill="#919E35"/>
<path d="M57.6135 52.3928H55.7271V54.2792H57.6135V52.3928Z" fill="#919E35"/>
<path d="M59.4999 52.3928H57.6135V54.2792H59.4999V52.3928Z" fill="#777C2E"/>
<path d="M61.3861 52.3928H59.4997V54.2792H61.3861V52.3928Z" fill="#777C2E"/>
<path d="M31.2053 54.2791H29.3191V56.1655H31.2053V54.2791Z" fill="#777C2E"/>
<path d="M33.0917 54.2791H31.2053V56.1655H33.0917V54.2791Z" fill="#777C2E"/>
<path d="M34.9778 54.2791H33.0917V56.1655H34.9778V54.2791Z" fill="#777C2E"/>
<path d="M36.8642 54.2791H34.9778V56.1655H36.8642V54.2791Z" fill="#919E35"/>
<path d="M38.7504 54.2791H36.8642V56.1655H38.7504V54.2791Z" fill="#919E35"/>
<path d="M42.523 54.2791H40.6368V56.1655H42.523V54.2791Z" fill="#919E35"/>
<path d="M50.0684 54.2791H48.182V56.1655H50.0684V54.2791Z" fill="#AAB242"/>
<path d="M51.9548 54.2791H50.0684V56.1655H51.9548V54.2791Z" fill="#AAB242"/>
<path d="M53.8409 54.2791H51.9545V56.1655H53.8409V54.2791Z" fill="#919E35"/>
<path d="M55.7273 54.2791H53.8409V56.1655H55.7273V54.2791Z" fill="#919E35"/>
<path d="M57.6135 54.2791H55.7271V56.1655H57.6135V54.2791Z" fill="#777C2E"/>
<path d="M59.4999 54.2791H57.6135V56.1655H59.4999V54.2791Z" fill="#777C2E"/>
<path d="M33.0917 56.1653H31.2053V58.0517H33.0917V56.1653Z" fill="#777C2E"/>
<path d="M34.9778 56.1653H33.0917V58.0517H34.9778V56.1653Z" fill="#777C2E"/>
<path d="M36.8642 56.1653H34.9778V58.0517H36.8642V56.1653Z" fill="#777C2E"/>
<path d="M38.7504 56.1653H36.8642V58.0517H38.7504V56.1653Z" fill="#919E35"/>
<path d="M42.523 56.1653H40.6368V58.0517H42.523V56.1653Z" fill="#919E35"/>
<path d="M50.0684 56.1653H48.182V58.0517H50.0684V56.1653Z" fill="#AAB242"/>
<path d="M51.9548 56.1653H50.0684V58.0517H51.9548V56.1653Z" fill="#919E35"/>
<path d="M53.8409 56.1653H51.9545V58.0517H53.8409V56.1653Z" fill="#919E35"/>
<path d="M55.7273 56.1653H53.8409V58.0517H55.7273V56.1653Z" fill="#777C2E"/>
<path d="M57.6135 56.1653H55.7271V58.0517H57.6135V56.1653Z" fill="#777C2E"/>
<path d="M59.4999 56.1653H57.6135V58.0517H59.4999V56.1653Z" fill="#777C2E"/>
<path d="M38.7504 58.0518H36.8642V59.9382H38.7504V58.0518Z" fill="#919E35"/>
<path d="M40.6368 58.0518H38.7504V59.9382H40.6368V58.0518Z" fill="#919E35"/>
<path d="M42.523 58.0518H40.6368V59.9382H42.523V58.0518Z" fill="#919E35"/>
<path d="M50.0684 58.0518H48.182V59.9382H50.0684V58.0518Z" fill="#919E35"/>
<path d="M51.9548 58.0518H50.0684V59.9382H51.9548V58.0518Z" fill="#919E35"/>
<path d="M53.8409 58.0518H51.9545V59.9382H53.8409V58.0518Z" fill="#777C2E"/>
<path d="M55.7273 58.0518H53.8409V59.9382H55.7273V58.0518Z" fill="#777C2E"/>
<path d="M57.6135 58.0518H55.7271V59.9382H57.6135V58.0518Z" fill="#777C2E"/>
<path d="M42.523 59.938H40.6368V61.8244H42.523V59.938Z" fill="#919E35"/>
<path d="M44.4094 59.938H42.523V61.8244H44.4094V59.938Z" fill="#919E35"/>
<path d="M50.0684 59.938H48.182V61.8244H50.0684V59.938Z" fill="#919E35"/>
<path d="M51.9548 59.938H50.0684V61.8244H51.9548V59.938Z" fill="#777C2E"/>
<path d="M53.8409 59.938H51.9545V61.8244H53.8409V59.938Z" fill="#777C2E"/>
<path d="M55.7273 59.938H53.8409V61.8244H55.7273V59.938Z" fill="#777C2E"/>
<path d="M44.4094 61.8245H42.523V63.7109H44.4094V61.8245Z" fill="#919E35"/>
<path d="M50.0684 61.8245H48.182V63.7109H50.0684V61.8245Z" fill="#919E35"/>
<path d="M44.4094 63.7104H42.523V65.5969H44.4094V63.7104Z" fill="#919E35"/>
<path d="M46.2958 63.7104H44.4094V65.5969H46.2958V63.7104Z" fill="#919E35"/>
<path d="M48.1822 63.7104H46.2958V65.5969H48.1822V63.7104Z" fill="#919E35"/>
<path d="M46.2958 65.5969H44.4094V67.4833H46.2958V65.5969Z" fill="#919E35"/>
<path d="M46.2958 67.4832H44.4094V69.3693H46.2958V67.4832Z" fill="#919E35"/>
<path d="M46.2958 69.3691H44.4094V71.2555H46.2958V69.3691Z" fill="#919E35"/>
<path d="M48.1822 69.3691H46.2958V71.2555H48.1822V69.3691Z" fill="#919E35"/>
<path d="M48.1822 71.2556H46.2958V73.1418H48.1822V71.2556Z" fill="#919E35"/>
<path d="M50.0684 73.1418H48.182V75.0283H50.0684V73.1418Z" fill="#919E35"/>
<path d="M51.9548 75.0283H50.0684V76.9147H51.9548V75.0283Z" fill="#919E35"/>
<path d="M53.8409 76.9146H51.9545V78.801H53.8409V76.9146Z" fill="#919E35"/>
<g filter="url(#filter0_d_30_5094)">
<path d="M108.459 56.677V38.677H102.459V35.677H120.459V38.677H114.459V56.677H108.459ZM132.459 38.677V35.677H138.459V38.677H132.459ZM126.459 56.677V53.677H132.459V44.677H129.459V41.677H138.459V53.677H144.459V56.677H126.459ZM147.459 56.677V41.677H165.459V44.677H168.459V56.677H162.459V44.677H159.459V56.677H153.459V44.677H150.459V56.677H147.459ZM174.459 56.677V53.677H171.459V44.677H174.459V41.677H189.459V44.677H192.459V50.677H177.459V53.677H189.459V56.677H174.459ZM177.459 47.677H186.459V44.677H177.459V47.677ZM195.459 56.677V35.677H213.459V38.677H216.459V44.677H213.459V47.677H216.459V53.677H213.459V56.677H195.459ZM201.459 44.677H210.459V38.677H201.459V44.677ZM201.459 53.677H210.459V47.677H201.459V53.677ZM222.459 56.677V53.677H219.459V41.677H225.459V53.677H234.459V41.677H240.459V56.677H222.459ZM246.459 56.677V53.677H243.459V44.677H246.459V41.677H258.459V35.677H264.459V56.677H246.459ZM249.459 53.677H258.459V44.677H249.459V53.677ZM270.459 56.677V53.677H267.459V44.677H270.459V41.677H282.459V35.677H288.459V56.677H270.459ZM273.459 53.677H282.459V44.677H273.459V53.677ZM300.459 38.677V35.677H306.459V38.677H300.459ZM294.459 56.677V53.677H300.459V44.677H297.459V41.677H306.459V53.677H312.459V56.677H294.459ZM318.459 56.677V53.677H315.459V44.677H318.459V41.677H333.459V44.677H336.459V50.677H321.459V53.677H333.459V56.677H318.459ZM321.459 47.677H330.459V44.677H321.459V47.677Z" fill="#FFE898"/>
</g>
<defs>
<filter id="filter0_d_30_5094" x="100.459" y="35.677" width="236" height="24" filterUnits="userSpaceOnUse" color-interpolation-filters="sRGB">
<feFlood flood-opacity="0" result="BackgroundImageFix"/>
<feColorMatrix in="SourceAlpha" type="matrix" values="0 0 0 0 0 0 0 0 0 0 0 0 0 0 0 0 0 0 127 0" result="hardAlpha"/>
<feOffset dx="-2" dy="3"/>
<feComposite in2="hardAlpha" operator="out"/>
<feColorMatrix type="matrix" values="0 0 0 0 0.992157 0 0 0 0 0.772549 0 0 0 0 0.027451 0 0 0 1 0"/>
<feBlend mode="normal" in2="BackgroundImageFix" result="effect1_dropShadow_30_5094"/>
<feBlend mode="normal" in="SourceGraphic" in2="effect1_dropShadow_30_5094" result="shape"/>
</filter>
</defs>
</svg>
